<svg width="220" height="28" viewBox="0 0 220 28" fill="none" xmlns="http://www.w3.org/2000/svg">
<path d="M0.490234 5.56299C0.606445 2.34229 2.2666 0.673828 5.4707 0.557617H17.9717C21.1758 0.673828 22.8193 2.34229 22.9023 5.56299V8.02832H17.9219V5.53809H5.4707V23.0195H17.9219V16.8438H11.7461V11.8633H22.9023V23.0195C22.7363 26.1572 21.0928 27.8174 17.9717 28H5.4707C2.2998 27.834 0.639648 26.1821 0.490234 23.0444V5.56299ZM45.3145 15.5488V5.53809H32.8633V15.5488H45.3145ZM32.8633 20.5293V28H27.8828V0.557617H45.2646C48.4688 0.707031 50.1455 2.38379 50.2949 5.58789V15.499C50.1455 18.6533 48.4854 20.3301 45.3145 20.5293L50.3447 28H44.8662L39.8359 20.5293H32.8633ZM72.707 15.4492V5.58789H60.2559V15.4492H72.707ZM60.2559 20.4297V28H55.2754V5.58789C55.3916 2.38379 57.0435 0.723633 60.231 0.607422H72.707C75.9111 0.69043 77.5713 2.35889 77.6875 5.61279V28H72.707V20.4297H60.2559ZM87.7979 28H82.6929L86.9014 0.607422H92.0063L96.2896 17.4912L100.523 0.607422H105.628L110.036 28H104.931L102.565 13.0586L98.8545 28H93.7495L90.0889 13.5068L87.7979 28ZM115.041 0.557617H137.453V5.53809H128.737V28H123.757V5.53809H115.041V0.557617ZM147.414 0.557617V11.8633H159.865V0.557617H164.846V28H159.865V16.8438H147.414V28H142.434V0.557617H147.414ZM187.258 15.4492V5.58789H174.807V15.4492H187.258ZM174.807 20.4297V28H169.826V5.58789C169.942 2.38379 171.594 0.723633 174.782 0.607422H187.258C190.462 0.69043 192.122 2.35889 192.238 5.61279V28H187.258V20.4297H174.807ZM197.219 28V0.557617H202.174L214.65 19.2344V0.557617H219.631V28H214.625L202.199 9.17383V28H197.219Z" fill="#055D59"/>
</svg>
