<svg width="66" height="66" viewBox="0 0 66 66" fill="none" xmlns="http://www.w3.org/2000/svg">
<circle cx="33" cy="33" r="33" fill="#D9D9D9"/>
<rect x="23.3004" y="6" width="18.7387" height="5.03267" fill="#055D59"/>
<path d="M47.7677 33.3584C45.0265 29.1182 42.1996 17.9214 41.1288 12.853H24.4247C24.2105 18.2497 20.0523 28.7719 18 33.3584C30.9029 47.3857 30.1814 55.7683 30.9488 61.2293C32.1955 61.4511 34.8571 61.3578 34.8571 61.2293C34.1611 45.5424 47.7141 33.3584 47.7677 33.3584Z" fill="#055D59"/>
<circle cx="32.8609" cy="63.4474" r="1.55263" fill="#055D59"/>
<rect x="32.25" y="33.75" width="1.71325" height="27.6261" fill="white"/>
<path d="M32.3703 30.2552H30.3211V38L28.7962 37.092V30.2552H26.3849C27.0012 31.2938 27.3094 32.2404 27.3094 33.095C27.3094 33.9496 27.0902 34.6261 26.6518 35.1246C26.2134 35.6172 25.794 35.9407 25.3937 36.095C24.9934 36.2433 24.5804 36.1632 24.1547 35.8546C23.729 35.5401 23.4177 35.178 23.2207 34.7685C23.0301 34.3531 22.9665 33.9555 23.0301 33.5757C23.0936 33.1958 23.316 33.0297 23.6972 33.0772C24.0848 33.1246 24.5232 33.4926 25.0125 34.181C26.3214 33.3145 26.4294 32.0059 25.3365 30.2552H22.1246L21 29.0089H31.36L32.3703 30.2552Z" fill="white"/>
<path d="M28.8439 36.1128L25.47 38L24.4502 37.1632L28.8343 34.7774L28.8439 36.1128Z" fill="white"/>
<path d="M34.7434 29L35.6679 30.2552H33.7332V37.9911L32.2082 37.1098V30.2641H31.3028L30.3974 29H34.7434Z" fill="white"/>
<path d="M33.2547 30.2552H35.3039V38L36.8288 37.092V30.2552H39.2401C38.6238 31.2938 38.3156 32.2404 38.3156 33.095C38.3156 33.9496 38.5348 34.6261 38.9732 35.1246C39.4116 35.6172 39.831 35.9407 40.2313 36.095C40.6316 36.2433 41.0446 36.1632 41.4703 35.8546C41.896 35.5401 42.2073 35.178 42.4043 34.7685C42.5949 34.3531 42.6585 33.9555 42.5949 33.5757C42.5314 33.1958 42.309 33.0297 41.9278 33.0772C41.5402 33.1246 41.1018 33.4926 40.6125 34.181C39.3036 33.3145 39.1956 32.0059 40.2885 30.2552H43.5004L44.625 29.0089H34.265L33.2547 30.2552Z" fill="white"/>
<path d="M36.7811 36.1128L40.155 38L41.1748 37.1632L36.7907 34.7774L36.7811 36.1128Z" fill="white"/>
<path d="M30.8816 29L29.9571 30.2552H31.8918V37.9911L33.4168 37.1098V30.2641H34.3222L35.2276 29H30.8816Z" fill="white"/>
</svg>
